<svg preserveAspectRatio="none" width="100%" height="100%" overflow="visible" style="display: block;" viewBox="0 0 969.14 235.961" fill="none" xmlns="http://www.w3.org/2000/svg">
<g id="Wordmark">
<path d="M869.04 0.59078H965.07V8.62078H869.04V0.59078ZM887.3 52.9508H948.79V60.5408H887.3V52.9508ZM887.52 81.1108H947.91V88.8108H887.52V81.1108ZM912.05 3.45078L921.73 5.54078C921.07 8.32745 920.337 11.2241 919.53 14.2308C918.797 17.2374 918.063 20.0974 917.33 22.8108C916.67 25.5241 915.937 27.9441 915.13 30.0708L907.43 28.0908C908.017 25.8174 908.603 23.2508 909.19 20.3908C909.85 17.4574 910.437 14.5241 910.95 11.5908C911.463 8.65744 911.83 5.94411 912.05 3.45078ZM881.47 25.1208H954.07V95.9608H945.49V32.8208H889.83V95.9608H881.47V25.1208Z" fill="#FFBF00"/>
<path d="M889.28 170.621H944.83V177.991H889.28V170.621ZM887.3 223.971H946.26V231.341H887.3V223.971ZM883.56 191.851H950.88V235.961H942.52V199.331H891.7V235.961H883.56V191.851ZM916.78 143.011C913.773 147.484 909.85 152.104 905.01 156.871C900.243 161.637 894.927 166.221 889.06 170.621C883.267 175.021 877.217 178.907 870.91 182.281C870.543 181.694 870.067 180.997 869.48 180.191C868.893 179.384 868.27 178.577 867.61 177.771C866.95 176.964 866.327 176.304 865.74 175.791C872.193 172.491 878.39 168.567 884.33 164.021C890.343 159.474 895.733 154.671 900.5 149.611C905.34 144.551 909.19 139.637 912.05 134.871H920.52C923.453 138.977 926.79 142.974 930.53 146.861C934.343 150.747 938.377 154.414 942.63 157.861C946.957 161.307 951.357 164.461 955.83 167.321C960.377 170.107 964.813 172.454 969.14 174.361C968.187 175.387 967.233 176.561 966.28 177.881C965.327 179.201 964.447 180.484 963.64 181.731C959.313 179.384 954.95 176.744 950.55 173.811C946.15 170.877 941.86 167.724 937.68 164.351C933.5 160.904 929.613 157.384 926.02 153.791C922.427 150.124 919.347 146.531 916.78 143.011Z" fill="#FFBF00"/>
<path d="M178.271 49.5117V125.977H202.441V158.496H177.832C176.66 171.387 172.559 182.959 165.527 193.359C158.643 203.613 149.707 211.816 138.867 217.822C127.881 223.975 115.869 227.051 102.686 227.051H81.5918V194.531H102.393C113.086 194.531 122.461 191.162 130.371 184.277C138.281 177.539 143.115 168.896 145.166 158.496H16.5527V49.5117H0V16.9922H16.5527V0H49.0723V16.9922H65.918V49.5117H49.0723V125.977H145.752V49.5117H129.492V16.9922H145.752V0H178.271V16.9922H195.41V49.5117H178.271Z" fill="var(--fill-0, #1D452C)"/>
<path d="M391.553 0V16.9922H407.812V49.5117H391.553V151.465C391.553 165.381 388.037 177.979 381.299 189.404C374.561 200.977 365.332 210.059 353.906 216.797C342.48 223.682 329.883 227.051 315.967 227.051H229.834V49.5117H210.938V16.9922H229.834V0H262.354V16.9922H276.855V49.5117H262.354V194.531H315.674C327.686 194.531 337.793 190.283 346.289 181.787C354.785 173.291 359.033 163.184 359.033 151.172V49.5117H341.895V16.9922H359.033V0H391.553Z" fill="var(--fill-0, #1D452C)"/>
<path d="M609.375 0V16.8457H633.691V49.3652H609.375V94.4824C609.375 106.934 606.445 118.359 600.439 128.76C594.434 139.16 586.377 147.363 576.27 153.662C566.162 159.814 554.736 163.184 542.285 163.77C543.018 172.559 546.387 179.883 552.539 185.742C558.691 191.602 566.162 194.531 574.951 194.531H609.375V227.051H571.875C560.449 227.051 550.049 224.268 540.527 218.555C531.152 212.988 523.682 205.518 518.115 196.143C512.402 186.621 509.619 176.221 509.619 164.795V131.25H535.986C547.266 131.25 556.934 127.295 564.99 119.238C572.9 111.328 576.855 101.66 576.855 90.3809V49.3652H480.322V149.854C480.322 164.062 476.807 176.953 469.922 188.672C462.891 200.391 453.662 209.619 441.943 216.65C430.225 223.535 417.334 227.051 403.125 227.051V194.531C415.43 194.531 425.977 190.137 434.619 181.348C443.408 172.705 447.803 162.158 447.803 149.854V49.3652H423.486V16.8457H447.803V0H480.322V16.8457H576.855V0H609.375Z" fill="var(--fill-0, #1D452C)"/>
<path d="M735.938 0V16.9922H778.564V49.5117H735.938V194.531H778.564V227.051H660.645V194.531H703.418V49.5117H660.645V16.9922H703.418V0H735.938Z" fill="var(--fill-0, #1D452C)"/>
</g>
</svg>
