<svg preserveAspectRatio="none" width="100%" height="100%" overflow="visible" style="display: block;" viewBox="0 0 904.14 240.961" fill="none" xmlns="http://www.w3.org/2000/svg">
<g id="Wordmark Alt">
<path d="M804.04 5.59078H900.07V13.6208H804.04V5.59078ZM822.3 57.9508H883.79V65.5408H822.3V57.9508ZM822.52 86.1108H882.91V93.8108H822.52V86.1108ZM847.05 8.45078L856.73 10.5408C856.07 13.3274 855.337 16.2241 854.53 19.2308C853.797 22.2374 853.063 25.0974 852.33 27.8108C851.67 30.5241 850.937 32.9441 850.13 35.0708L842.43 33.0908C843.017 30.8174 843.603 28.2508 844.19 25.3908C844.85 22.4574 845.437 19.5241 845.95 16.5908C846.463 13.6574 846.83 10.9441 847.05 8.45078ZM816.47 30.1208H889.07V100.961H880.49V37.8208H824.83V100.961H816.47V30.1208Z" fill="var(--fill-0, #1D452C)"/>
<path d="M824.28 175.621H879.83V182.991H824.28V175.621ZM822.3 228.971H881.26V236.341H822.3V228.971ZM818.56 196.851H885.88V240.961H877.52V204.331H826.7V240.961H818.56V196.851ZM851.78 148.011C848.773 152.484 844.85 157.104 840.01 161.871C835.243 166.637 829.927 171.221 824.06 175.621C818.267 180.021 812.217 183.907 805.91 187.281C805.543 186.694 805.067 185.997 804.48 185.191C803.893 184.384 803.27 183.577 802.61 182.771C801.95 181.964 801.327 181.304 800.74 180.791C807.193 177.491 813.39 173.567 819.33 169.021C825.343 164.474 830.733 159.671 835.5 154.611C840.34 149.551 844.19 144.637 847.05 139.871H855.52C858.453 143.977 861.79 147.974 865.53 151.861C869.343 155.747 873.377 159.414 877.63 162.861C881.957 166.307 886.357 169.461 890.83 172.321C895.377 175.107 899.813 177.454 904.14 179.361C903.187 180.387 902.233 181.561 901.28 182.881C900.327 184.201 899.447 185.484 898.64 186.731C894.313 184.384 889.95 181.744 885.55 178.811C881.15 175.877 876.86 172.724 872.68 169.351C868.5 165.904 864.613 162.384 861.02 158.791C857.427 155.124 854.347 151.531 851.78 148.011Z" fill="var(--fill-0, #1D452C)"/>
<path d="M178.271 49.5117V125.977H202.441V158.496H177.832C176.66 171.387 172.559 182.959 165.527 193.359C158.643 203.613 149.707 211.816 138.867 217.822C127.881 223.975 115.869 227.051 102.686 227.051H81.5918V194.531H102.393C113.086 194.531 122.461 191.162 130.371 184.277C138.281 177.539 143.115 168.896 145.166 158.496H16.5527V49.5117H0V16.9922H16.5527V0H49.0723V16.9922H65.918V49.5117H49.0723V125.977H145.752V49.5117H129.492V16.9922H145.752V0H178.271V16.9922H195.41V49.5117H178.271Z" fill="var(--fill-0, #1D452C)"/>
<path d="M391.553 0V16.9922H407.812V49.5117H391.553V151.465C391.553 165.381 388.037 177.979 381.299 189.404C374.561 200.977 365.332 210.059 353.906 216.797C342.48 223.682 329.883 227.051 315.967 227.051H229.834V49.5117H210.938V16.9922H229.834V0H262.354V16.9922H276.855V49.5117H262.354V194.531H315.674C327.686 194.531 337.793 190.283 346.289 181.787C354.785 173.291 359.033 163.184 359.033 151.172V49.5117H341.895V16.9922H359.033V0H391.553Z" fill="var(--fill-0, #1D452C)"/>
<path d="M609.375 0V16.8457H633.691V49.3652H609.375V94.4824C609.375 106.934 606.445 118.359 600.439 128.76C594.434 139.16 586.377 147.363 576.27 153.662C566.162 159.814 554.736 163.184 542.285 163.77C543.018 172.559 546.387 179.883 552.539 185.742C558.691 191.602 566.162 194.531 574.951 194.531H609.375V227.051H571.875C560.449 227.051 550.049 224.268 540.527 218.555C531.152 212.988 523.682 205.518 518.115 196.143C512.402 186.621 509.619 176.221 509.619 164.795V131.25H535.986C547.266 131.25 556.934 127.295 564.99 119.238C572.9 111.328 576.855 101.66 576.855 90.3809V49.3652H480.322V149.854C480.322 164.062 476.807 176.953 469.922 188.672C462.891 200.391 453.662 209.619 441.943 216.65C430.225 223.535 417.334 227.051 403.125 227.051V194.531C415.43 194.531 425.977 190.137 434.619 181.348C443.408 172.705 447.803 162.158 447.803 149.854V49.3652H423.486V16.8457H447.803V0H480.322V16.8457H576.855V0H609.375Z" fill="var(--fill-0, #1D452C)"/>
<path d="M735.938 0V16.9922H778.564V49.5117H735.938V194.531H778.564V227.051H660.645V194.531H703.418V49.5117H660.645V16.9922H703.418V0H735.938Z" fill="var(--fill-0, #1D452C)"/>
</g>
</svg>
